<mxfile host="app.diagrams.net" modified="2023-01-20T15:54:13.035Z" agent="5.0 (Windows NT 10.0; Win64; x64) AppleWebKit/537.36 (KHTML, like Gecko) Chrome/109.0.0.0 Safari/537.36" etag="Avu_X7M5406OgOQiK0MW" version="20.8.8" type="github">
  <diagram name="Page-1" id="4Y37j3rHrOZSDCL7uFVV">
    <mxGraphModel dx="1434" dy="764" grid="1" gridSize="10" guides="1" tooltips="1" connect="1" arrows="1" fold="1" page="1" pageScale="1" pageWidth="827" pageHeight="1169" math="0" shadow="0">
      <root>
        <mxCell id="0" />
        <mxCell id="1" parent="0" />
        <mxCell id="ur0xqvQK2tA-UpcMfQyR-2" value="" style="aspect=fixed;html=1;points=[];align=center;image;fontSize=12;image=img/lib/azure2/networking/Virtual_Networks.svg;" vertex="1" parent="1">
          <mxGeometry x="230" y="120" width="67" height="40" as="geometry" />
        </mxCell>
        <mxCell id="ur0xqvQK2tA-UpcMfQyR-3" value="" style="sketch=0;aspect=fixed;html=1;points=[];align=center;image;fontSize=12;image=img/lib/mscae/Virtual_WANs.svg;" vertex="1" parent="1">
          <mxGeometry x="390" y="310" width="50" height="50" as="geometry" />
        </mxCell>
        <mxCell id="ur0xqvQK2tA-UpcMfQyR-4" value="" style="outlineConnect=0;dashed=0;verticalLabelPosition=bottom;verticalAlign=top;align=center;html=1;shape=mxgraph.aws3.internet_3;fillColor=#D2D3D3;gradientColor=none;" vertex="1" parent="1">
          <mxGeometry x="140" y="290" width="79.5" height="54" as="geometry" />
        </mxCell>
      </root>
    </mxGraphModel>
  </diagram>
</mxfile>
